<?xml version="1.0" encoding="UTF-8"?>
<svg id="Layer_2" data-name="Layer 2" xmlns="http://www.w3.org/2000/svg" viewBox="0 0 35.24 16.82">
  <g id="Layer_1-2" data-name="Layer 1">
    <g>
      <path d="M4.68,5.69h-1.44v1.27s-.02.07-.02.11l1.46-.13v-1.25Z"/>
      <path d="M1.44,6.96V2.21c0-.22.08-.4.26-.55.17-.15.39-.22.64-.22s.47.07.64.22c.17.15.26.33.26.55v.85h1.44v-.85c0-.3-.06-.59-.19-.86-.12-.27-.29-.5-.5-.7-.21-.2-.46-.36-.74-.47-.29-.12-.59-.17-.91-.17s-.63.06-.92.17c-.28.12-.53.27-.74.47-.21.2-.37.43-.5.7-.12.27-.19.55-.19.86v4.75c0,.13.02.26.04.39l1.46-.13c-.03-.08-.06-.17-.06-.26Z"/>
      <path d="M6.82,5.48h.5l.37,1.18,1.45-.13-.39-1.23c.1-.04.19-.09.28-.14s.17-.12.24-.19c.43-.39.65-.96.65-1.69v-.97c0-.72-.22-1.28-.65-1.68-.38-.36-.87-.54-1.49-.54h-2.38v6.79l1.42-.13v-1.26ZM6.82,1.49h.96c.13,0,.23.01.32.04s.16.07.22.13c.12.12.18.34.18.65v.97c0,.3-.06.52-.18.65-.12.1-.3.14-.54.14h-.96V1.49Z"/>
      <path d="M13.17.08h-1.8l-1.4,6.38,4.52-.4L13.17.08ZM11.49,5.88l.78-3.85.77,3.85h-1.55Z"/>
      <polygon points="16.59 .08 15.15 .08 15.15 6 16.59 5.87 16.59 .08"/>
      <polygon points="22.03 3.86 19.74 3.86 19.74 5.3 20.59 5.3 20.59 5.52 22.03 5.39 22.03 3.86"/>
      <path d="M18.79,2.21c0-.22.08-.4.26-.55.17-.15.39-.22.64-.22s.47.07.64.22c.17.15.26.33.26.55v.85h1.44v-.85c0-.3-.06-.59-.19-.86-.12-.27-.29-.5-.5-.7-.21-.2-.46-.36-.74-.47-.29-.12-.59-.17-.91-.17s-.63.06-.92.17c-.28.12-.53.27-.74.47-.21.2-.37.43-.5.7-.12.27-.19.55-.19.86v3.6l1.44-.13v-3.47Z"/>
      <path d="M1.96,10.6c-.1-.15-.18-.3-.22-.45-.04-.15-.07-.3-.07-.46,0-.3.07-.52.2-.66.13-.14.32-.2.56-.2.26,0,.45.07.58.2.13.14.2.36.2.68v.41h1.45v-.32c0-.73-.18-1.29-.55-1.68-.37-.39-.93-.59-1.68-.59s-1.32.2-1.7.59c-.38.39-.58.95-.58,1.67,0,.26.03.5.08.73.06.23.15.45.28.67.03.05.07.1.11.15.12.17.25.34.42.52.22.23.48.47.8.74.25.2.46.38.62.55s.3.33.41.49c.1.16.18.31.22.47.04.16.06.33.06.52,0,.34-.07.57-.21.7-.14.13-.33.2-.58.2s-.43-.06-.58-.19-.22-.36-.22-.68v-.61H.11v.52c0,.73.19,1.29.56,1.68.38.39.94.59,1.7.59s1.32-.2,1.72-.59c.39-.4.59-.97.59-1.71,0-.28-.03-.54-.08-.77-.06-.24-.15-.47-.28-.69s-.3-.45-.52-.68c-.22-.23-.48-.47-.8-.74-.21-.17-.39-.32-.54-.46-.03-.03-.07-.06-.1-.09-.17-.17-.3-.33-.41-.48Z"/>
      <polygon points="10.08 9.12 10.08 7.68 4.95 7.68 4.95 9.12 6.8 9.12 6.8 10.79 6.79 16.68 8.23 16.68 8.24 10.66 8.24 9.12 10.08 9.12"/>
      <path d="M11.37,7.68l-.61,2.76-1.37,6.24h1.48l.29-1.44.05-.32h2.12l.06.32.29,1.44h1.48l-1.43-6.51-.55-2.49h-1.8ZM11.49,13.47l.64-3.16.14-.69.13.67.64,3.19h-1.55Z"/>
      <path d="M17.96,7.68h-2.38v9.02h1.42v-3.62h.96c.61,0,1.1-.17,1.49-.52.43-.39.65-.96.65-1.69v-.97c0-.1-.01-.2-.02-.29-.05-.58-.25-1.04-.62-1.39-.38-.36-.87-.54-1.49-.54ZM18.68,10.87c0,.3-.06.52-.18.65-.12.1-.3.14-.54.14h-.96v-2.58h.96c.13,0,.23.01.32.04s.16.07.22.13c.09.09.14.27.16.48,0,.06.02.1.02.17v.97Z"/>
      <polygon points="20.56 7.68 20.56 9.56 20.56 16.68 24.66 16.68 24.66 15.24 22 15.24 22 9.43 22 7.68 20.56 7.68"/>
      <polygon points="25.24 7.68 25.24 9.14 25.24 16.68 29.32 16.68 29.32 15.24 26.68 15.24 26.68 12.6 28.78 12.6 28.78 11.16 26.68 11.16 26.68 9.12 29.32 9.12 29.32 8.78 29.32 7.68 25.24 7.68"/>
      <polygon points="33.68 7.68 33.36 8.42 33.18 8.83 32.45 10.44 31.74 8.83 31.62 8.57 31.21 7.68 29.65 7.68 30.11 8.71 31.66 12.18 31.74 12.32 31.74 16.68 33.18 16.68 33.18 12.32 33.22 12.18 34.97 8.27 35.24 7.68 33.68 7.68"/>
    </g>
  </g>
</svg>